<svg xmlns="http://www.w3.org/2000/svg" version="1.1" xmlns:xlink="http://www.w3.org/1999/xlink" xmlns:svgjs="http://svgjs.com/svgjs" width="1440" height="560" preserveAspectRatio="none" viewBox="0 0 1440 560"><g mask="url(&quot;#SvgjsMask1000&quot;)" fill="none"><rect width="1440" height="560" x="0" y="0" fill="#0e2a47"></rect><path d="M 0,164 C 57.6,157.8 172.8,110.6 288,133 C 403.2,155.4 460.8,280 576,276 C 691.2,272 748.8,116.8 864,113 C 979.2,109.2 1036.8,260.8 1152,257 C 1267.2,253.2 1382.4,126.6 1440,94L1440 560L0 560z" fill="#184a7e"></path><path d="M 0,317 C 96,358.4 288,528.2 480,524 C 672,519.8 768,309.6 960,296 C 1152,282.4 1344,424 1440,456L1440 560L0 560z" fill="#2264ab"></path></g><defs><mask id="SvgjsMask1000"><rect width="1440" height="560" fill="#ffffff"></rect></mask></defs></svg>